<svg xmlns="http://www.w3.org/2000/svg" width="32" height="32" viewBox="0 0 32 32" fill="currentColor">
  <path fill-rule="evenodd" d="M5 4h22a2 2 0 0 1 2 2v20a2 2 0 0 1-2 2H5a2 2 0 0 1-2-2V6a2 2 0 0 1 2-2Zm2 4h18V6H7v2Zm14 5h5v2h-5v-2Zm0 4h5v2h-5v-2Zm0 4h5v2h-5v-2ZM12 11a7 7 0 1 0 0 14 7 7 0 0 0 0-14Z"/>
  <path d="M12 15.5c-.9-2.2-.2-4 1.8-5 .7 2.2.1 4-1.8 5Zm1.6 2.1c2.3-.6 4 .2 4.8 2.3-2.2.7-4-.1-4.8-2.3Zm-3.2 0c-.8 2.2-2.6 3-4.8 2.3.8-2.1 2.5-2.9 4.8-2.3Zm1.6-1.1a1.5 1.5 0 1 1 0 3 1.5 1.5 0 0 1 0-3ZM6 28h3v2H6v-2Zm17 0h3v2h-3v-2Z"/>
</svg>
