<svg xmlns="http://www.w3.org/2000/svg" width="32" height="32" viewBox="0 0 32 32" fill="currentColor">
  <path fill-rule="evenodd" d="M7 3h18a2 2 0 0 1 2 2v22a2 2 0 0 1-2 2H7a2 2 0 0 1-2-2V5a2 2 0 0 1 2-2Zm0 2v5h18V5H7Zm3 1a1.5 1.5 0 1 0 0 3 1.5 1.5 0 0 0 0-3Zm4 1h5v1.5h-5V7Zm8-1a1.5 1.5 0 1 0 0 3 1.5 1.5 0 0 0 0-3ZM16 12a7.5 7.5 0 1 0 0 15 7.5 7.5 0 0 0 0-15Z"/>
  <path fill-rule="evenodd" d="M16 14a5.5 5.5 0 1 1 0 11 5.5 5.5 0 0 1 0-11Zm-4.25 6.2c1.5-1.2 3-1.3 4.7-.25 1.45.9 2.8.8 4.15-.2a4.7 4.7 0 1 1-8.85.45Z"/>
</svg>
