<svg xmlns="http://www.w3.org/2000/svg" width="32" height="32" viewBox="0 0 32 32" fill="none" stroke="currentColor" stroke-width="1" stroke-linecap="round" stroke-linejoin="round">
  <rect x="4" y="5" width="24" height="22" rx="2"/>
  <path d="M4 9h24M7 27v2M25 27v2"/>
  <circle cx="12" cy="18" r="5.5"/>
  <circle cx="12" cy="18" r="1.25"/>
  <path d="M12 16.75c-.5-2.25.15-4.1 1.75-5M13.1 18.65c2.2.6 3.55 2 3.9 4M10.9 18.65c-1.7 1.55-3.55 1.9-5.35 1M10.9 17.35c-.5-2.2-1.85-3.55-4-4"/>
  <path d="M21 14h4M21 17h4M21 20h4M21 23h3"/>
</svg>
