<svg xmlns="http://www.w3.org/2000/svg" width="16" height="16" viewBox="0 0 16 16" fill="currentColor">
  <path d="M6.25 3.75a4.25 4.25 0 1 0 0 8.5v-1.8a2.45 2.45 0 1 1 0-4.9v-1.8Z"/>
  <path fill-rule="evenodd" d="M9.75 3.75a4.25 4.25 0 1 1 0 8.5 4.25 4.25 0 0 1 0-8.5Zm0 1.8a2.45 2.45 0 1 0 0 4.9 2.45 2.45 0 0 0 0-4.9Z"/>
  <path d="M11.75 12.1c0-1.2.85-2 2.05-2 1.15 0 1.95.65 1.95 1.65 0 .8-.45 1.35-1.2 1.9l-.8.6H16V16h-4.25v-1.35l1.8-1.35c.4-.3.6-.55.6-.85 0-.35-.25-.55-.65-.55-.45 0-.75.3-.75.8h-1Z"/>
</svg>
